<svg id="Layer_1" data-name="Layer 1" xmlns="http://www.w3.org/2000/svg" viewBox="0 0 642.19 1005.32"><defs><style>.cls-1{fill:#f79d80;}</style></defs><path class="cls-1" d="M546.34,678.52c42.73-4.39,81.57-26.27,109.35-61.64C689,574.44,703.54,516.53,695.49,458c-6.92-50.28-29.77-96.73-64.35-130.8-34.88-34.37-78.64-53.3-123.22-53.3a159.83,159.83,0,0,0-16.07.82C449.12,279.1,410.28,301,382.5,336.35c-33.35,42.44-47.85,100.35-39.79,158.89,6.92,50.27,29.77,96.73,64.34,130.8,34.89,34.37,78.65,53.3,123.23,53.3A156.74,156.74,0,0,0,546.34,678.52Zm118.39-216.3c6.92,50.24-5.28,99.62-33.44,135.48-18.38,23.38-42.56,39.48-69.43,46.54-4.79.15-7.63-.79-8.5-1.78-.39-.45-.62-2.8,1.29-6.79.31-.58.62-1.15.91-1.73l.25-.46a.67.67,0,0,0,.06-.12c21.84-43.46,13.39-99.87-25.57-163.6C502.68,424.57,479.69,364,514.15,318.48a24.74,24.74,0,0,1,11-6.54c7.66-2.26,16.74-1.58,25.4.32C608.1,332.23,654.93,391,664.73,462.22ZM373.46,491c-6.91-50.25,5.28-99.63,33.45-135.48,19.83-25.25,46.44-42,75.91-48a11.51,11.51,0,0,1,3,.67c.42.9.24,4.57-2.11,9a12.94,12.94,0,0,0-.58,1.26c-22.78,43.64-14.6,100.6,24.8,165,24.79,40.56,45.84,93.49,25,136.84-8.06,13.21-20.78,25.93-47.27,19.91C429,619.57,383.15,561.4,373.46,491ZM654.24,998.35a15.52,15.52,0,1,0-3.79,30.8C763,1043,798,1069.26,798,1077.25c0,3.65-12.62,20.34-74.36,35.27-54.45,13.16-127.09,20.42-204.53,20.42s-150.09-7.26-204.54-20.42c-61.73-14.93-74.35-31.62-74.35-35.27,0-3.5,9.86-16.49,53.7-29.68,38.37-11.56,91.87-19.91,151.27-23.68,13.6,15.15,25.7,27.88,35.62,37.95H448.44a15.53,15.53,0,0,0,0,31.05H589.75a15.53,15.53,0,1,0,0-31.05H557.39a1222.29,1222.29,0,0,0,127.2-153.15c71-101.29,155.6-257.93,155.6-429,0-177-144-321-321.09-321S198,302.68,198,479.7c0,171.06,84.62,327.7,155.6,429,22.79,32.52,45.47,61.37,66.19,86-74.52,6.43-210.63,26-210.63,82.58,0,27.68,33,49.7,98.11,65.44C364,1156.42,439.26,1164,519.1,1164s155.06-7.56,211.82-21.29C796,1127,829,1104.93,829,1077.25,829,1027.3,719.52,1006.37,654.24,998.35ZM229.05,479.7c0-159.91,130.11-290,290.05-290s290,130.09,290,290c0,162.72-81.33,313.08-149.56,410.57-58.28,83.27-117.22,143.25-140.5,165.76C495.88,1033.61,437.25,974,379,890.87,310.6,793.25,229.05,642.67,229.05,479.7Z" transform="translate(-198 -158.66)"/></svg>